<!DOCTYPE svg PUBLIC "-//W3C//DTD SVG 1.1//EN"
        "http://www.w3.org/Graphics/SVG/1.1/DTD/svg11.dtd">
<svg width="64px" height="64px" viewBox="-2.4 -2.4 28.80 28.80" xmlns="http://www.w3.org/2000/svg" version="1.1" fill="#000000" stroke="#000000" stroke-width="0.024">

<g id="SVGRepo_bgCarrier" stroke-width="0"/> <g transform="translate(0 -1028.4)"> <path d="m3 8v2 1 3 1 5 1c0 1.105 0.8954 2 2 2h14c1.105 0 2-0.895 2-2v-1-5-4-3h-18z" transform="translate(0 1028.4)" fill="#F27405"/> <path d="m3 1035.4v2 1 3 1 5 1c0 1.1 0.8954 2 2 2h14c1.105 0 2-0.9 2-2v-1-5-4-3h-18z" fill="#ecf0f1"/> <path d="m3 1034.4v2 1 3 1 5 1c0 1.1 0.8954 2 2 2h14c1.105 0 2-0.9 2-2v-1-5-4-3h-18z" fill="#bdc3c7"/> <path d="m3 1033.4v2 1 3 1 5 1c0 1.1 0.8954 2 2 2h14c1.105 0 2-0.9 2-2v-1-5-4-3h-18z" fill="#ecf0f1"/> <path d="m5 1c-1.1046 0-2 0.8954-2 2v1 4 2 1 3 1 5 1c0 1.105 0.8954 2 2 2h2v-1h-1.5c-0.8284 0-1.5-0.672-1.5-1.5s0.6716-1.5 1.5-1.5h12.5 1c1.105 0 2-0.895 2-2v-1-5-4-3-1c0-1.1046-0.895-2-2-2h-4-10z" transform="translate(0 1028.4)" fill="#F27405"/> <path d="m8 1v18h1 9 1c1.105 0 2-0.895 2-2v-1-5-4-3-1c0-1.1046-0.895-2-2-2h-4-6-1z" transform="translate(0 1028.4)" fill="#ff9300"/> </g>

</svg>